<mxfile host="app.diagrams.net" modified="2022-05-29T10:12:25.435Z" agent="5.0 (Windows NT 10.0; WOW64) AppleWebKit/537.36 (KHTML, like Gecko) Chrome/100.0.4896.143 YaBrowser/22.5.0.1816 Yowser/2.5 Safari/537.36" etag="OlRclorUGEpcDJYtkWr_" version="18.1.3" type="github">
  <diagram id="C5RBs43oDa-KdzZeNtuy" name="Page-1">
    <mxGraphModel dx="1038" dy="584" grid="1" gridSize="10" guides="1" tooltips="1" connect="1" arrows="1" fold="1" page="1" pageScale="1" pageWidth="827" pageHeight="1169" math="0" shadow="0">
      <root>
        <mxCell id="WIyWlLk6GJQsqaUBKTNV-0" />
        <mxCell id="WIyWlLk6GJQsqaUBKTNV-1" parent="WIyWlLk6GJQsqaUBKTNV-0" />
        <mxCell id="1mLjssvMImw9kMNzaDM3-3" value="" style="edgeStyle=orthogonalEdgeStyle;rounded=0;orthogonalLoop=1;jettySize=auto;html=1;" edge="1" parent="WIyWlLk6GJQsqaUBKTNV-1" source="1mLjssvMImw9kMNzaDM3-1" target="1mLjssvMImw9kMNzaDM3-2">
          <mxGeometry relative="1" as="geometry" />
        </mxCell>
        <mxCell id="1mLjssvMImw9kMNzaDM3-1" value="начало" style="ellipse;whiteSpace=wrap;html=1;" vertex="1" parent="WIyWlLk6GJQsqaUBKTNV-1">
          <mxGeometry x="354" y="130" width="120" height="80" as="geometry" />
        </mxCell>
        <mxCell id="1mLjssvMImw9kMNzaDM3-7" value="" style="edgeStyle=orthogonalEdgeStyle;rounded=0;orthogonalLoop=1;jettySize=auto;html=1;" edge="1" parent="WIyWlLk6GJQsqaUBKTNV-1" source="1mLjssvMImw9kMNzaDM3-2" target="1mLjssvMImw9kMNzaDM3-6">
          <mxGeometry relative="1" as="geometry" />
        </mxCell>
        <mxCell id="1mLjssvMImw9kMNzaDM3-2" value="вывести приветствие по имени" style="shape=parallelogram;perimeter=parallelogramPerimeter;whiteSpace=wrap;html=1;fixedSize=1;" vertex="1" parent="WIyWlLk6GJQsqaUBKTNV-1">
          <mxGeometry x="354" y="250" width="120" height="60" as="geometry" />
        </mxCell>
        <mxCell id="1mLjssvMImw9kMNzaDM3-9" value="" style="edgeStyle=orthogonalEdgeStyle;rounded=0;orthogonalLoop=1;jettySize=auto;html=1;" edge="1" parent="WIyWlLk6GJQsqaUBKTNV-1" source="1mLjssvMImw9kMNzaDM3-6" target="1mLjssvMImw9kMNzaDM3-8">
          <mxGeometry relative="1" as="geometry" />
        </mxCell>
        <mxCell id="1mLjssvMImw9kMNzaDM3-13" value="" style="edgeStyle=orthogonalEdgeStyle;rounded=0;orthogonalLoop=1;jettySize=auto;html=1;" edge="1" parent="WIyWlLk6GJQsqaUBKTNV-1" source="1mLjssvMImw9kMNzaDM3-6" target="1mLjssvMImw9kMNzaDM3-10">
          <mxGeometry relative="1" as="geometry">
            <mxPoint x="200" y="565" as="targetPoint" />
            <Array as="points">
              <mxPoint x="230" y="375" />
              <mxPoint x="230" y="480" />
              <mxPoint x="414" y="480" />
            </Array>
          </mxGeometry>
        </mxCell>
        <mxCell id="1mLjssvMImw9kMNzaDM3-6" value="есть премиум-подписка?&amp;nbsp;" style="rhombus;whiteSpace=wrap;html=1;" vertex="1" parent="WIyWlLk6GJQsqaUBKTNV-1">
          <mxGeometry x="314" y="340" width="200" height="70" as="geometry" />
        </mxCell>
        <mxCell id="1mLjssvMImw9kMNzaDM3-11" value="" style="edgeStyle=orthogonalEdgeStyle;rounded=0;orthogonalLoop=1;jettySize=auto;html=1;" edge="1" parent="WIyWlLk6GJQsqaUBKTNV-1" source="1mLjssvMImw9kMNzaDM3-8" target="1mLjssvMImw9kMNzaDM3-10">
          <mxGeometry relative="1" as="geometry" />
        </mxCell>
        <mxCell id="1mLjssvMImw9kMNzaDM3-8" value="вывести&lt;br&gt;рекламу" style="shape=parallelogram;perimeter=parallelogramPerimeter;whiteSpace=wrap;html=1;fixedSize=1;" vertex="1" parent="WIyWlLk6GJQsqaUBKTNV-1">
          <mxGeometry x="530" y="450" width="120" height="60" as="geometry" />
        </mxCell>
        <mxCell id="1mLjssvMImw9kMNzaDM3-10" value="конец" style="ellipse;whiteSpace=wrap;html=1;" vertex="1" parent="WIyWlLk6GJQsqaUBKTNV-1">
          <mxGeometry x="354" y="525" width="120" height="60" as="geometry" />
        </mxCell>
        <mxCell id="1mLjssvMImw9kMNzaDM3-15" value="нет" style="text;html=1;strokeColor=none;fillColor=none;align=center;verticalAlign=middle;whiteSpace=wrap;rounded=0;" vertex="1" parent="WIyWlLk6GJQsqaUBKTNV-1">
          <mxGeometry x="514" y="350" width="60" height="30" as="geometry" />
        </mxCell>
        <mxCell id="1mLjssvMImw9kMNzaDM3-16" value="да" style="text;html=1;strokeColor=none;fillColor=none;align=center;verticalAlign=middle;whiteSpace=wrap;rounded=0;" vertex="1" parent="WIyWlLk6GJQsqaUBKTNV-1">
          <mxGeometry x="260" y="350" width="60" height="30" as="geometry" />
        </mxCell>
      </root>
    </mxGraphModel>
  </diagram>
</mxfile>
